<?xml version="1.0" encoding="UTF-8"?>
<svg id="Layer_1" xmlns="http://www.w3.org/2000/svg" viewBox="0 0 70.47 70.47">
  <circle fill="#038187" cx="35.23" cy="35.23" r="35.23"/>
  <path fill="#fff" d="M34.95,7.53c1.62.38,3.32.94,4.24,2.43.17.28.47,1.2.66,1.26,3.47-.28,6.06.14,5.69,4.28,1.23-.18,2.8-.23,4.06-.14,2.27.16,3.93,1.05,4.7,3.28.4,10.9.08,21.89.16,32.82-.27,1.69-1.69,3.42-3.42,3.74-.62.11-1.25-.07-1.79.2h-30.95c-2.49-.19-4.27-1.36-4.8-3.94.08-10.93-.24-21.92.16-32.82,1.22-3.77,5.26-3.39,8.49-3.19.27-.78.02-1.46.30-2.32.84-2.54,3.45-1.77,5.52-1.91.18-.06.53-1.06.72-1.35.78-1.22,2.77-2.19,4.19-2.35h2.06ZM24.64,13.79v4.81l.21.21h18.02c.63,0,.21-1.83.22-2.15.02-.95.37-2.11-.05-3.05-.41-.36-3.51-.09-4.30-.16-1.32-.12-.99-.75-1.22-1.66-.65-2.54-5.73-2.65-6.93-.59-.42.72-.08,1.91-.98,2.19-.98.31-3.05-.08-4.20.06-.31.04-.54.10-.75.35ZM22.3,17.71h-4.61c-1.05,0-2.06,1.53-2,2.54v30.27c.05,1.28.90,2.51,2.27,2.55h31.92c1.42.02,2.27-1.09,2.40-2.41-.11-10.43.23-20.92-.17-31.32-.83-2.58-4.51-1.33-6.56-1.62.09,1.76-.91,3.17-2.68,3.44-5.76-.39-12.20.51-17.89,0-1.79-.16-2.86-1.71-2.68-3.44Z"/>
  <path fill="#fff" d="M33.82,26.82l13.72-.03c1.64.13,1.77,2.05.14,2.34-4.34-.38-9.52.49-13.76,0-1.37-.16-1.42-2.04-.10-2.31Z"/>
  <path fill="#fff" d="M33.68,45.11l14.48.04c1.22.94.71,2.10-.75,2.27-4.18-.31-8.95.41-13.06,0-1.58-.16-2.10-1.53-.66-2.31Z"/>
  <path fill="#fff" d="M48.53,37.88c-.21.23-.54.30-.84.33-4.35.41-9.35-.33-13.77,0-1.19-.11-1.44-1.48-.48-2.13l14.37-.07c.93.04,1.32,1.22.71,1.88Z"/>
  <path fill="#fff" d="M19.73,27.10c1.02-1.11,2.41.68,2.99,1.46h.19s3.96-3.87,3.96-3.87c1.52-.45,2.24.71,1.28,1.96-.65.84-3.50,3.71-4.33,4.33-.56.41-1.03.51-1.65.13-.26-.16-2.31-2.20-2.48-2.47-.32-.49-.37-1.09.04-1.54Z"/>
  <path fill="#fff" d="M21.97,37.16c.31.28.57.77.93.90.43-.07,3.28-3.67,4.07-3.92,1.40-.45,2.16,1.01,1.18,2l-4.74,4.61c-.46.14-.84.10-1.24-.15-.29-.18-2.62-2.57-2.70-2.81-.29-.91.67-1.80,1.56-1.42.18.08.74.60.95.78Z"/>
  <path fill="#fff" d="M27.08,43.59c1.10-.25,1.87.65,1.35,1.63l-4.92,4.98c-.35.14-.85.18-1.20.03-.18-.08-2.70-2.66-2.79-2.85-.32-.74.29-1.62,1.07-1.62.86,0,1.93,1.85,2.32,1.79.93-.60,3.34-3.76,4.17-3.95Z"/>
</svg>