<?xml version="1.0" encoding="UTF-8"?>
<svg id="Layer_1" xmlns="http://www.w3.org/2000/svg" viewBox="0 0 70.47 70.47">
  <circle fill="#038187" cx="35.23" cy="35.23" r="35.23"/>
  <path fill="#fff" d="M31.79,45.14l10.17-18.82h-3.26l-10.04,18.82h3.14ZM39.13,27.05h1.6l-9.38,17.36h-1.49l9.26-17.36Z"/>
  <path fill="#fff" d="M40.8,35.27c-2.51.29-3.72,2.55-3.8,4.66-.08,2.12.96,4.62,3.45,5.1.35.07.69.1,1.03.1.92,0,1.76-.26,2.47-.76.97-.69,1.62-1.81,1.81-3.16.27-1.87-.2-3.65-1.27-4.75-.92-.95-2.19-1.36-3.69-1.19ZM45.03,41.11c-.17,1.15-.71,2.1-1.51,2.67-.8.57-1.81.75-2.93.54-2.06-.4-2.93-2.54-2.86-4.35.06-1.67.93-3.71,3.15-3.97,1.26-.14,2.33.19,3.08.97.91.94,1.31,2.49,1.07,4.14Z"/>
  <path fill="#fff" d="M39.37,41.21c.13.93.41,1.53.88,1.89.32.24.72.37,1.21.37.14,0,.3-.01.45-.03.53-.07.96-.39,1.26-.91.67-1.17.53-3.18.14-4.1-.41-.97-1.2-1.38-2.3-1.2-1.69.29-1.83,2.64-1.65,3.99ZM41.51,37.91c.55,0,.91.26,1.14.8.32.75.44,2.51-.10,3.46-.19.33-.42.51-.73.55-.50.07-.86,0-1.12-.19-.31-.23-.50-.69-.60-1.41-.11-.81-.14-2.97,1.05-3.17.13-.02.25-.03.36-.03Z"/>
  <path fill="#fff" d="M29.1,34.49c.06,0,.12,0,.18,0,.59-.05,1.10-.31,1.41-.73.59-.79.78-2.64.41-3.95-.22-.76-.61-1.27-1.13-1.48-1.03-.40-1.90-.14-2.46.73-.86,1.34-.74,3.96.23,4.91.34.33.84.51,1.36.51ZM28.12,29.46c.37-.57.88-.71,1.58-.44.38.15.59.62.70,1.00.34,1.17.12,2.77-.29,3.31-.18.24-.51.40-.88.43-.38.03-.75-.08-.97-.30-.67-.66-.85-2.87-.13-4.00Z"/>
  <path fill="#fff" d="M28.62,36.14c.16.01.31.02.46.02,1.55,0,2.83-.70,3.63-2.00,1.06-1.72,1.05-4.22-.02-5.94-.88-1.42-2.32-2.11-4.05-1.95-1.26.11-2.30.70-3.03,1.70-.63.88-.98,2.02-.98,3.23,0,2.21,1.26,4.70,3.99,4.94ZM28.71,27c1.85-.17,2.85.78,3.36,1.61.93,1.50.93,3.67.01,5.17-.51.84-1.52,1.80-3.40,1.64-2.27-.19-3.31-2.32-3.32-4.21,0-1.94,1.03-4.00,3.34-4.20Z"/>
  <path fill="#fff" d="M59.21,29.94c-.09-.37-.18-.73-.29-1.09-.64-2.23-1.60-4.33-2.81-6.25-.20-.32-.41-.63-.62-.94-1.33-1.92-2.92-3.63-4.73-5.11-.29-.24-.59-.47-.89-.69-1.88-1.39-3.96-2.52-6.19-3.34-.35-.13-.71-.25-1.06-.36-2.12-.66-4.36-1.05-6.68-1.12-.23,0-.46-.01-.70-.01-.14,0-.28,0-.42,0-2.42.04-4.77.43-6.97,1.13,0,0,0,0,0,0,0,0,0,0,0,0-.36.11-.71.24-1.06.36,0,0,0,0,0,0-2.22.81-4.30,1.94-6.17,3.32,0,0,0,0,0,0,0,0,0,0,0,0-.30.22-.60.45-.89.69,0,0,0,0,0,0-1.80,1.46-3.38,3.16-4.71,5.06h0s0,0,0,0c-.22.30-.42.61-.62.93,0,0,0,0,0,0-1.21,1.90-2.16,3.98-2.81,6.18,0,0,0,0,0,0,0,0,0,0,0,0-.11.36-.21.72-.30,1.08h0c-.47,1.89-.71,3.86-.71,5.89,0,.24,0,.48.01.72h0c.01.37.03.75.06,1.12h0c.16,2.22.62,4.35,1.34,6.37,0,0,0,0,0,0,.12.35.26.71.40,1.05,0,0,0,0,0,0,0,0,0,0,0,0,.80,1.99,1.86,3.84,3.14,5.54,0,0,0,0,0,0,.22.30.46.59.69.88,0,0,0,0,0,0,0,0,0,0,0,0,1.33,1.61,2.86,3.05,4.55,4.28.30.22.61.43.92.64,1.71,1.13,3.57,2.05,5.54,2.73.35.12.71.24,1.07.34,1.99.59,4.09.93,6.26.99.23,0,.46.01.68.01.15,0,.29,0,.44,0,2.10-.04,4.15-.34,6.09-.87.36-.10.72-.21,1.08-.32,1.99-.65,3.87-1.54,5.61-2.64.32-.20.63-.41.93-.63,1.73-1.21,3.29-2.64,4.65-4.24.24-.28.48-.58.71-.87,1.31-1.69,2.40-3.55,3.24-5.55.15-.34.28-.69.41-1.05.74-2.03,1.23-4.18,1.41-6.42.03-.37.06-.74.07-1.12.01-.31.02-.62.02-.93,0-1.98-.24-3.91-.68-5.75ZM21.3,46.38c-.84-1.09-1.55-2.29-2.12-3.56-.15-.34-.30-.69-.42-1.04-.49-1.32-.83-2.71-.98-4.16-.04-.37-.07-.74-.09-1.12-.01-.27-.02-.53-.02-.80,0-1.24.13-2.45.38-3.61.07-.37.16-.73.27-1.09.41-1.49,1.02-2.90,1.79-4.21.19-.32.39-.64.60-.95.88-1.30,1.94-2.48,3.13-3.50.28-.24.58-.48.87-.70,1.27-.96,2.68-1.74,4.19-2.33.35-.13.70-.26,1.06-.37,1.51-.48,3.12-.76,4.77-.81.17,0,.34,0,.50,0,.21,0,.41,0,.62.01,1.62.06,3.18.33,4.66.80.36.11.71.24,1.06.37,1.51.59,2.93,1.38,4.21,2.34.30.23.59.46.88.71,1.20,1.03,2.26,2.22,3.15,3.54.21.31.41.63.59.95.78,1.32,1.38,2.75,1.79,4.26.10.36.19.73.26,1.10.23,1.12.35,2.29.35,3.48,0,.34-.01.67-.03,1-.02.38-.05.75-.10,1.12-.18,1.47-.53,2.88-1.05,4.21-.13.35-.28.69-.44,1.03-.59,1.28-1.34,2.48-2.21,3.57-.24.30-.47.58-.73.86-.92,1.01-1.94,1.91-3.07,2.68-.31.21-.62.41-.95.61-1.13.68-2.35,1.23-3.62,1.64-.35.12-.71.22-1.08.31-1.25.31-2.55.50-3.89.52-.13,0-.27,0-.40,0-.24,0-.49,0-.72-.01-1.36-.06-2.69-.27-3.96-.62-.36-.10-.71-.21-1.06-.33-1.26-.44-2.46-1.01-3.57-1.71-.31-.20-.62-.40-.92-.62-1.09-.79-2.09-1.70-2.98-2.71-.25-.28-.48-.57-.71-.87ZM17.12,50.72c-.24-.28-.47-.58-.69-.88-1.21-1.60-2.21-3.35-2.98-5.23-.15-.34-.28-.69-.40-1.05-.68-1.91-1.12-3.92-1.28-6.01-.03-.37-.05-.74-.06-1.12,0-.24-.01-.49-.01-.73,0-1.91.23-3.76.66-5.53.08-.37.18-.73.29-1.09.61-2.09,1.51-4.06,2.65-5.87.19-.32.40-.63.62-.93,1.26-1.81,2.76-3.43,4.46-4.82.29-.24.58-.47.89-.69,1.78-1.32,3.75-2.39,5.86-3.17.35-.13.70-.25,1.06-.36,2.10-.66,4.32-1.04,6.62-1.08-.01,1.31-.03,2.96-.06,4.86-1.78.04-3.50.34-5.12.86,0,0,0,0,0,0,0,0,0,0,0,0-.36.11-.71.24-1.06.37,0,0,0,0,0,0-1.62.62-3.13,1.46-4.50,2.48,0,0,0,0,0,0,0,0,0,0,0,0-.30.22-.59.46-.87.70,0,0,0,0,0,0-1.29,1.09-2.43,2.35-3.38,3.74,0,0,0,0,0,0,0,0,0,0,0,0-.21.31-.41.62-.61.95,0,0,0,0,0,0-.84,1.40-1.50,2.91-1.95,4.51,0,0,0,0,0,0,0,0,0,0,0,0-.10.36-.19.72-.27,1.09h0c-.28,1.28-.43,2.61-.43,3.97,0,.27,0,.53.02.79h0s0,0,0,0c.01.38.04.75.08,1.12h0c.16,1.57.52,3.08,1.04,4.51,0,0,0,0,0,0,.13.35.27.70.42,1.04,0,0,0,0,0,0,0,0,0,0,0,0,.60,1.39,1.37,2.69,2.28,3.87,0,0,0,0,0,0,.22.30.46.59.71.87,0,0,0,0,0,0,0,0,0,0,0,0,.96,1.11,2.04,2.10,3.23,2.96-.98,1.32-1.95,2.62-2.90,3.90-1.60-1.16-3.05-2.52-4.31-4.03Z"/>
</svg>