<?xml version="1.0" encoding="UTF-8"?>
<svg id="Layer_1" xmlns="http://www.w3.org/2000/svg" viewBox="0 0 70.47 70.47">
  <circle fill="#038187" cx="35.23" cy="35.23" r="35.23"/>
  <path fill="#fff" d="M24.62,30c.22-.22.54,0,.75.13,2.11,1.35,1.52,4.6-.93,5.11-2.57.54-4.42-2.44-2.79-4.49.24-.3.72-.71,1.08-.83.39-.13.62.4.28.6-.23.14-.4.2-.61.39-1.31,1.21-.65,3.42,1.11,3.7,1.96.31,3.27-1.98,1.99-3.5-.26-.31-.46-.4-.79-.59-.19-.11-.25-.37-.09-.53Z"/>
  <path fill="#fff" d="M23.84,29.17c.18,0,.34.13.35.3v3.25c-.05.36-.55.39-.65.04v-3.32c.02-.15.15-.27.3-.28Z"/>
  <path fill="#fff" d="M24.62,37.17c.22-.22.54,0,.75.13,2.11,1.35,1.52,4.6-.93,5.11-2.57.54-4.42-2.44-2.79-4.49.24-.3.72-.71,1.08-.83.39-.13.62.4.28.6-.23.14-.4.2-.61.39-1.31,1.21-.65,3.42,1.11,3.7,1.96.31,3.27-1.98,1.99-3.5-.26-.31-.46-.4-.79-.59-.19-.11-.25-.37-.09-.53Z"/>
  <path fill="#fff" d="M23.84,36.34c.18,0,.34.13.35.3v3.25c-.05.36-.55.39-.65.04v-3.32c.02-.15.15-.27.3-.28Z"/>
  <path fill="#fff" d="M24.62,44.35c.22-.22.54,0,.75.13,2.11,1.35,1.52,4.6-.93,5.11-2.57.54-4.42-2.44-2.79-4.49.24-.3.72-.71,1.08-.83.39-.13.62.4.28.6-.23.14-.4.2-.61.39-1.31,1.21-.65,3.42,1.11,3.7,1.96.31,3.27-1.98,1.99-3.5-.26-.31-.46-.4-.79-.59-.19-.11-.25-.37-.09-.53Z"/>
  <path fill="#fff" d="M23.84,43.51c.18,0,.34.13.35.3v3.25c-.05.36-.55.39-.65.04v-3.32c.02-.15.15-.27.3-.28Z"/>
  <path fill="#fff" d="M54.9,21.45c-.78-2.23-2.43-3.12-4.7-3.28-1.26-.09-2.83-.03-4.06.14.37-4.14-2.22-4.56-5.69-4.28-.2-.06-.49-.98-.67-1.26-.91-1.49-2.61-2.06-4.23-2.43h-2.07c-1.41.16-3.4,1.13-4.18,2.34-.19.29-.54,1.29-.72,1.35-2.07.14-4.68-.63-5.52,1.91-.28.85-.03,1.54-.30,2.31-3.23-.19-7.28-.58-8.49,3.2-.4,10.9-.08,21.88-.16,32.81.53,2.58,2.31,3.75,4.79,3.94h30.95c.54-.27,1.17-.09,1.79-.2,1.73-.31,3.15-2.05,3.42-3.74-.08-10.93.24-21.91-.16-32.81ZM25.23,16.59c.21-.24.45-.31.75-.34,1.15-.14,3.23.25,4.21-.06.89-.28.56-1.47.98-2.19,1.19-2.06,6.28-1.94,6.93.59.23.92-.1,1.55,1.22,1.67.8.07,3.89-.19,4.31.16.41.94.06,2.1.04,3.05,0,.32.42,2.14-.22,2.14h-18.01l-.21-.2v-4.82ZM52.87,53.45c-.13,1.33-.98,2.44-2.4,2.42h-31.92c-1.36-.04-2.21-1.27-2.26-2.55v-30.27c-.06-1,.94-2.54,2-2.54h4.6c-.18,1.74.89,3.29,2.68,3.45,5.68.51,12.12-.39,17.88-.01,1.77-.26,2.77-1.68,2.69-3.44,2.05.29,5.73-.95,6.56,1.63.41,10.39.06,20.88.17,31.31Z"/>
  <path fill="#fff" d="M28.39,30.9v.5h.04v1.55h-.04v.5h19.09v-2.55h-19.09Z"/>
  <path fill="#fff" d="M28.39,38.18v.5h.04v1.56h-.04v.5h19.09v-2.56h-19.09Z"/>
  <path fill="#fff" d="M28.39,45.47v.5h.04v1.56h-.04v.5h19.09v-2.56h-19.09Z"/>
</svg>