<?xml version="1.0" encoding="UTF-8"?>
<svg id="Layer_1" xmlns="http://www.w3.org/2000/svg" viewBox="0 0 70.47 70.47">
  <circle fill="#038187" cx="35.23" cy="35.23" r="35.23"/>
  <path fill="#fff" d="M28.64,52.16h-5.28l16.89-31.64h5.49l-17.1,31.64ZM25.41,50.93h2.5l15.77-29.19h-2.69l-15.58,29.19Z"/>
  <path fill="#fff" d="M44.92,52.15c-.56,0-1.13-.06-1.72-.17-4.18-.81-5.94-5.01-5.8-8.57.14-3.56,2.17-7.36,6.39-7.84h0c2.52-.28,4.66.40,6.20,1.99,1.80,1.86,2.59,4.84,2.13,7.99-.33,2.27-1.42,4.16-3.05,5.32-1.19.85-2.60,1.28-4.15,1.28ZM43.93,36.78h0c-3.74.42-5.20,3.86-5.30,6.67-.12,3.06,1.34,6.65,4.81,7.32,1.88.36,3.59.05,4.93-.90,1.36-.96,2.26-2.56,2.55-4.49.41-2.78-.27-5.38-1.80-6.96-1.26-1.31-3.05-1.87-5.18-1.63ZM44.91,49.33c-.81,0-1.49-.21-2.03-.61-.80-.61-1.27-1.62-1.48-3.18-.31-2.26-.07-6.23,2.77-6.71,1.84-.31,3.18.38,3.87,2.01.66,1.55.88,4.93-.24,6.90-.50.88-1.23,1.41-2.12,1.53-.27.04-.52.06-.76.06ZM44.98,39.99c-.19,0-.39.02-.61.06h0c-1.99.34-1.95,3.96-1.76,5.33.16,1.20.49,1.97,1.01,2.36.44.33,1.05.44,1.89.32.51-.07.91-.37,1.22-.92.91-1.59.71-4.55.17-5.81-.38-.90-1.00-1.34-1.92-1.34Z"/>
  <path fill="#fff" d="M24.09,37.05c-.25,0-.51-.01-.77-.03-4.59-.39-6.70-4.58-6.70-8.30,0-2.03.58-3.96,1.65-5.43,1.22-1.68,2.98-2.67,5.09-2.86h0c2.92-.26,5.33.90,6.81,3.28,1.79,2.89,1.80,7.08.03,9.98-1.34,2.19-3.49,3.37-6.10,3.37ZM23.46,21.65h0c-3.89.35-5.63,3.80-5.62,7.07,0,3.18,1.76,6.75,5.58,7.08,3.17.27,4.86-1.35,5.72-2.75,1.55-2.52,1.54-6.18-.02-8.69-.86-1.39-2.54-2.99-5.66-2.71ZM24.12,34.25c-.89,0-1.73-.31-2.29-.87h0c-1.64-1.60-1.85-6.00-.39-8.26.94-1.46,2.41-1.89,4.13-1.22.88.34,1.54,1.20,1.91,2.48.63,2.20.31,5.30-.68,6.64-.52.70-1.39,1.14-2.37,1.22-.10,0-.20.01-.29.01ZM22.69,32.51c.38.37.99.56,1.64.51.63-.05,1.18-.32,1.49-.73.68-.91,1.05-3.60.49-5.56-.18-.63-.53-1.43-1.17-1.68-1.17-.45-2.04-.21-2.65.74-1.22,1.89-.91,5.62.22,6.72h0Z"/>
</svg>