<?xml version="1.0" encoding="UTF-8"?>
<svg id="Layer_1" xmlns="http://www.w3.org/2000/svg" viewBox="0 0 70.47 70.47">
  <circle fill="#038187" cx="35.23" cy="35.23" r="35.23"/>
  <path fill="#fff" d="M42.63,36.13h4.08v-9.64c0-.31.68-.54.96-.57.91-.08,3.54-.12,4.39.01.2.03.77.43.77.56v9.64h1.84v-3.11c0-.33,1.03-.81,1.32-.40l3.94,4.33v.72s-3.98,4.30-3.98,4.30c-.33.32-1.28-.07-1.28-.46v-3.11h-1.84v10.31h1.68c.17,0,.60.48.64.68.17.78.17,2.30-.95,2.27H13.19c-.50-.01-.90-.24-.97-.76-.07-.56-.15-2.20.67-2.20h3.01v-10.31h-3.11c-.75,0-.86-2.25.20-2.25h13.22v-5.87c0-.24.55-.52.77-.55.88-.13,3.45-.10,4.39-.01.32.03.96.32.96.67v5.77h4.08v-19.75c0-.22.52-.62.77-.66.86-.13,3.47-.09,4.39,0,.24.02.53.05.71.20.09.08.35.59.35.67v19.54ZM41.71,16.53h-4.49v19.59h4.49v-19.59ZM52.02,26.74h-4.49v9.39h4.49v-9.39ZM31.51,30.51h-4.49v5.61h4.49v-5.61ZM55.49,41.23l3.67-3.94-3.67-3.92v3.01c0,.36-.82.73-1.17.67H13.10s-.06.51-.06.51h41.89c.07,0,.56.49.56.56v3.11ZM21.20,38.37h-4.49v10.31h4.49v-10.31ZM26.20,38.37h-4.18v10.31h4.18v-10.31ZM31.51,38.37h-4.49v10.31h4.49v-10.31ZM36.41,38.37h-4.08v10.31h4.08v-10.31ZM41.71,38.37h-4.49v10.31h4.49v-10.31ZM46.72,38.37h-4.08v10.31h4.08v-10.31ZM52.02,38.37h-4.49v10.31h4.49v-10.31ZM54.37,49.50H13.04l.10,1.28c13.73.10,27.50.01,41.24.04v-1.33Z"/>
  <path fill="#fff" d="M17.73,30.11c-1.59-.12-3.60-1.21-4.27-2.72-.27-.61-.55-1.75.37-1.96.50-.11,2.63-.07,3.08.14.40.19.43.57.83.65v-1.01c-1.72-.36-3.52-1.01-4.03-2.87-.80-2.89,1.30-5.02,4.02-5.42-.32-1.67,1.29-1.02,2.36-1.07.23.16-.02.86.14,1.08.08.11.67.18.87.25,1.06.39,2.24,1.07,2.84,2.05.36.59.87,1.74.06,2.16-.34.18-2.27.17-2.73.11s-.73-.31-1.08-.60v.86c2.10.49,4.33,1.19,4.58,3.70.29,2.91-2.02,4.32-4.57,4.75-.09.36.12,1.23-.11,1.47-.26.27-2.35.23-2.35-.10v-1.48ZM16.46,26.23h-2.40c-.06,1.32,1.49,2.43,2.63,2.83.38.13,1.55.29,1.72.42.29.23.08,1.17.14,1.54h.82s.09-1.49.09-1.49c.14-.17,1.39-.29,1.74-.40,3.06-.92,3.98-4.58.92-5.91-.53-.23-2.57-.58-2.70-.87-.09-.18-.09-1.81-.06-2.10.18-1.33,1.69.46,1.89.46h2.30c.03-1.09-1.17-2.04-2.07-2.47-.39-.19-1.91-.54-1.99-.62-.19-.18-.11-.74-.13-1h-.82c.24,1.40-.62,1.02-1.58,1.32-1.65.52-2.79,1.81-2.59,3.62.26,2.28,2.43,2.48,4.18,3.09-.12,1.30.59,3.75-1.48,2.18-.15-.11-.54-.59-.61-.61Z"/>
  <path fill="#fff" d="M19.48,27.34c-.08-.59-.52-2.66.50-2.50,2.48.40,1.75,2.84-.50,2.50Z"/>
  <path fill="#fff" d="M20.18,26.53c.53-.06.75-.55.15-.71-.29-.08-.10.62-.15.71Z"/>
  <path fill="#fff" d="M18.02,19.72c.37-.03.49.06.54.43.04.31.04,1.78-.11,1.95-.28.23-.56.06-.86-.07-1.37-.61-.88-2.22.43-2.31Z"/>
</svg>