<?xml version="1.0" encoding="UTF-8"?>
<svg id="Layer_1" xmlns="http://www.w3.org/2000/svg" viewBox="0 0 70.47 70.47">
  <circle fill="#038187" cx="35.23" cy="35.23" r="35.23"/>
  <path fill="#fff" d="M11.66,40.89c-.32-.26-.79-.57-.83-.99.14-2.14-.17-4.46,0-6.58.20-2.50,2.24-4.94,4.70-5.45-2.81-5.45,4.60-10.41,8.44-5.68,1.37,1.69,1.36,3.72.59,5.68.95.20,1.93.75,2.64,1.41.26.24,1.02,1.30,1.16,1.30.16,0,.85-.15.88-.31-3.19-5.81,2.68-12.40,8.84-9.66,3.70,1.65,5.02,6.14,3.13,9.66l1.03.28c.76-1.31,2.18-2.37,3.66-2.68-.04-.48-.33-.90-.44-1.38-1.02-4.62,4.35-8.01,8.12-5.07,2.02,1.57,2.38,4.18,1.35,6.45,2.45.53,4.48,2.96,4.70,5.45.18,2.10-.15,4.45,0,6.58-.03.45-.51.67-.77.99-.36.03-.06-.13-.06-.17v-6.80c0-1.25-.86-3.01-1.76-3.87-.47-.45-2.12-1.54-2.74-1.33-.06.02-.67.68-.84.80-.85.63-1.92.99-2.99.94-.19.16,1.41,1.49,1.52,1.72l-.71,1.04.78,8.80-1.65,1.69c-.46-.60-1.51-1.17-1.59-1.93l.65-8.86-.63-.75c.10-.23,1.70-1.55,1.52-1.72-1.03.05-2.17-.32-2.99-.94-.23-.18-.57-.67-.77-.76-.78-.36-3.23,1.35-3.52,2.22,2.67,1.52,4.59,4.13,4.81,7.27.20,2.85-.17,5.93,0,8.81-.05.51-.58.74-.94.99v-10.38c0-.15-.27-1.07-.35-1.29-.86-2.62-3.22-4.65-5.91-5.19-2.52,2.92-6.81,3.49-9.86,1.03-.28-.22-.91-1.03-1.17-1.05-2.31.60-4.41,2.11-5.45,4.29-.20.42-.72,1.82-.72,2.21v10.38l-.94-.88c.19-3.01-.29-6.38.03-9.35s2.29-5.43,4.78-6.84c-.37-.85-2.47-2.41-3.34-2.29-.18.03-1.32,1.12-1.82,1.35-.63.28-1.42.45-2.11.41-.19.16,1.41,1.49,1.52,1.72l-.63.75.65,8.86c-.08.75-1.13,1.33-1.59,1.93l-1.67-1.71.73-9.07-.64-.75c.11-.23,1.70-1.55,1.52-1.72-1.46.09-2.94-.64-3.83-1.77-1.90.25-3.55,1.78-4.14,3.58-.10.32-.35,1.25-.35,1.53v7.10ZM35.17,20.90c-8.13.06-7.62,12.65.70,11.90,7.27-.66,6.95-11.95-.70-11.90ZM19.13,21.33c-4.17.65-4.36,7.37.02,8.13,6.51,1.13,6.69-9.18-.02-8.13ZM49.63,21.33c-4.97.71-4.23,9.00,1.58,8.15,4.93-.72,4.33-9.00-1.58-8.15Z"/>
  <path fill="#fff" d="M35.19,34.09l2.26,2.18-.91,1.06,1.00,12.75-2.28,2.29-2.38-2.39,1.05-11.62c.24-1.14-.39-1.32-.93-2.10l2.18-2.18Z"/>
</svg>