<?xml version="1.0" encoding="UTF-8"?>
<svg id="Layer_1" xmlns="http://www.w3.org/2000/svg" viewBox="0 0 70.47 70.47">
  <circle fill="#038187" cx="35.23" cy="35.23" r="35.23"/>
  <path fill="#fff" d="M55.65,50.17c-.10-.10-.09-2.15-.24-2.77-.64-2.62-3.45-4.24-4.87-6.42,1.81-2.44,4.61-4.04,5.05-7.33.05-.40-.01-1.79.06-1.85.08-.08.81.12.88-.30v-2.41c-.30-.16-.63-.19-.97-.22-3.35-.24-9.66-.32-12.95,0-.37.03-.69,0-.90.37l-.07,2.25,1.05.59c-.62,4.08,2.77,6.20,5.09,8.90-1.45,2.19-4.72,4.19-5.05,6.94-.05.42.05,2.17-.03,2.25-.11.11-.92-.20-1.08.65-.07.36-.08,2.02.16,2.19l14.68-.09.05-2.44c-.08-.42-.80-.23-.88-.30ZM42.99,29.96h12.47v.73h-12.75c-.07-.21.08-.73.27-.73ZM43.81,31.78h10.56v2.64c0,1.21-3.78,4.50-4.54,5.65l-1.16.23c-2.09-2.67-5.60-4.60-4.86-8.53ZM44.32,46.59c.29-.59,4.13-4.82,4.53-4.94.05-.01.09-.02.14-.03.03,0,.06,0,.09-.01.02,0,.04,0,.06,0,.08,0,.15,0,.23.01.06.01.11.03.16.05.03.01.05.02.08.04.05.03.10.06.15.11.02.02.05.04.07.07.70,1.23,4.54,4.42,4.54,5.66v2.64h-10.56c-.04-1.31-.09-2.39.51-3.58ZM55.46,51.99h-12.75v-.73h12.75v.73Z"/>
  <path fill="#fff" d="M53.45,47.56v1.70h-8.75c0-.83.06-1.51.43-2.25.35-.59,3.25-3.78,4.04-4.47.38.55,1.06,1.26,1.83,2.06.82.85,2.33,2.42,2.45,2.95Z"/>
  <path fill="#fff" d="M49.08,41.60s.04,0,.06,0c-.02,0-.04,0-.06,0ZM49.37,41.61c-.06-.01-.12-.02-.18-.02-.02,0-.03,0-.05,0,.08,0,.15,0,.23.01ZM48.99,41.62s.06,0,.09-.01c-.03,0-.06,0-.09.01ZM48.99,41.62s-.09.02-.14.03c.05-.01.09-.02.14-.03Z"/>
  <path fill="#fff" d="M53.15,21.26v5.17h-1.21c0-1.38,0-2.75-.06-4.11-.03-.40-.03-1.65-.60-1.65h-4.43v1.66c0,.62-1.28.51-1.28.10v-1.60l-.37-.17-6.61.03-.16.15c-.08.59.27,2.03-.70,1.97-.15-.02-.59-.27-.59-.38v-1.60l-.37-.17-6.61.03-.16.15c-.08.59.27,2.03-.70,1.97-.15-.02-.60-.27-.60-.38v-1.60l-.16-.16h-6.99v1.66c0,.56-1.28.54-1.28.10v-1.60c-.09-.15-.21-.15-.37-.17-.78-.09-3.08-.09-3.84.02-.35.05-.81.30-.81.68v3.69h31.12c.38,0,.66.83.34,1.15-.02.02-.43.24-.45.24H15.25v24.19s.20.44.26.49l23.07.09c1.05,0,1.15,1.29.11,1.39h-22.54c-.93,0-1.69-.49-2.08-1.33-.19-10.12-.14-20.33-.03-30.46.04-.45,1.12-1.41,1.48-1.41h4.75c.06-.50-.09-1.17,0-1.65.10-.62,1.28-.49,1.28,0v1.65h7.15v-1.65c0-.21.49-.48.68-.46.15,0,.61.39.61.46v1.65h7.16v-1.65c0-.56,1.28-.41,1.28,0v1.65h7.15v-1.65c0-.65,1.28-.40,1.28,0v1.65h4.64s.62.23.69.27c.49.30.90,1.03.97,1.60Z"/>
  <path fill="#fff" d="M27.21,41.01c-.05-.44-.23-.67-.70-.70l-5.85.03-.40.56c.19,1.80-.23,4.03,0,5.77.06.45.29.56.69.59,1.33.13,4.12.12,5.45,0,.62-.06.74-.20.80-.80.11-1.27.14-4.21,0-5.45ZM25.93,45.60c-.02.16,0,.28-.16.38h-4.06l-.16-.16v-4.22h4.22l.15.16c-.16.37,0,.68.02,1.06.03.78.09,2.04,0,2.78Z"/>
  <path fill="#fff" d="M27.21,31.18c-.02-.21-.08-.51-.25-.65h-6.57c-.12.15-.12.35-.14.55-.15,1.82.13,3.83,0,5.67,0,.32.27.58.59.59,1.79-.14,3.80.16,5.56,0,.52-.05.74-.15.80-.70.14-1.21.12-4.22,0-5.45ZM25.89,35.87c-.03.08-.06.13-.13.17h-4.06l-.16-.16v-4.22h4.22l.14.17c-.08.29.02.56.03.84.02.55.09,2.85-.03,3.20Z"/>
  <path fill="#fff" d="M37.46,31.18c-.06-.60-.19-.74-.80-.80-1.39-.13-4.06-.12-5.45,0-.20.02-.39.02-.56.14-.12.16-.12.36-.14.56-.12,1.39-.13,4.07,0,5.45.03.39.12.78.59.80,1.79-.14,3.80.16,5.56,0,.51-.05.74-.15.80-.70.15-1.23.12-4.19,0-5.45ZM36.17,35.56c0,.15-.02.39-.15.48h-4.06l-.16-.16v-4.22h4.22l.15.16v3.74Z"/>
</svg>