<?xml version="1.0" encoding="UTF-8"?>
<svg id="Layer_1" xmlns="http://www.w3.org/2000/svg" viewBox="0 0 70.47 70.47">
  <circle fill="#038187" cx="35.23" cy="35.23" r="35.23"/>
  <path fill="#fff" d="M48.34,19.95c2.35-.53,2.47,3.26.13,2.91-1.54-.23-1.63-2.57-.13-2.91Z"/>
  <path fill="#fff" d="M45.09,18.84c-1.07,1.07-3.39-.66-4.62-1.09-17.76-6.2-32.47,15.04-20.5,29.34,13.12,15.68,38.45,1.56,31.81-17.97-.38-1.12-1.76-2.99-.59-3.96,2.23-1.85,3.58,3.33,3.93,4.75,5.1,20.64-19.45,35.45-35.23,21.39C2.68,35.97,18.75,7.49,41.16,14.84c1.31.43,5.96,1.98,3.93,3.99Z"/>
  <path fill="#fff" d="M40.1,24.36c.52-.1.88.13,1.29.41.84.6,4.67,4.44,5.31,5.3.41.55.48.95.30,1.63l-13.92,14.06c-.87.70-1.57.22-2.29-.37-3.05-2.48-5.80-6.24-8.83-8.84-.84-.93-.66-1.69.07-2.58.89-1.08,3.95-4.23,5.01-5.01,2.15-1.58,3.58,2.01,5.21,2.86l7.01-6.99c.23-.18.57-.43.85-.48ZM40.35,28.02l-6.99,7.00c-2.06,1.73-3.73-1.82-5.23-2.87l-3.16,3.16,7.27,7.13,11.28-11.26-3.16-3.16Z"/>
</svg>