<?xml version="1.0" encoding="UTF-8"?>
<svg id="Layer_1" xmlns="http://www.w3.org/2000/svg" viewBox="0 0 70.47 70.47">
  <circle fill="#038187" cx="35.23" cy="35.23" r="35.23"/>
  <path fill="#fff" d="M22.96,43.94c-.08,0-.16,0-.25-.03l-.23-.06-8.62-19.07.26-.24c2.13-2.01,4.19-3.43,6.29-4.33,4.05-1.75,8.37-1.74,12.52-1.73,2.67.01,5.41,0,8.06-.45,3.19-.55,6.40-1.85,9.53-3.86l.49-.31,9.30,20.53-.36.23c-1.77,1.15-4.17,2.59-7.01,3.49-3.99,1.26-8.06,1.29-11.99,1.32-5.25.04-10.22.08-15.05,2.79-.32.18-.72.47-1.10.76-.48.35-.93.69-1.31.87-.11.05-.28.13-.51.13ZM15.07,25.01l8.07,17.85c.28-.15.67-.44,1.05-.72.41-.30.83-.61,1.21-.82,5.06-2.84,10.38-2.88,15.53-2.92,3.86-.03,7.85-.06,11.70-1.27,2.54-.80,4.73-2.07,6.41-3.14l-8.47-18.69c-3.09,1.91-6.25,3.15-9.41,3.70-2.73.47-5.52.47-8.23.46-4.25,0-8.26-.01-12.12,1.65-1.91.82-3.79,2.10-5.74,3.90ZM28.39,37.55l-.21-.15c-1.59-1.14-3.16-2.20-4.84-2.55-.12-.02-.28-.02-.45-.01-.35,0-.78.02-1.14-.23l-.11-.08-2.38-5.32.19-.24c1.24-1.55,2.00-3.51,2.19-5.68l.03-.12c.06-.16.23-.66,3.17-1.24,2.90-.56,5.95-.55,8.90-.54,3.89.01,7.92.02,11.61-1.28l.28-.10.22.20c1.43,1.30,3.27,2.10,5.63,2.46l.28.04,2.77,6.49-.21.24c-1.27,1.46-2.08,3.31-2.30,5.21l-.04.33-.31.10c-3.74,1.14-7.63,1.13-11.39,1.13-3.87,0-7.89,0-11.65,1.27l-.24.08ZM23.08,33.83c.15,0,.30,0,.46.04,1.80.37,3.40,1.42,5.02,2.57,3.84-1.25,7.84-1.25,11.73-1.24,3.60,0,7.29,0,10.79-1.00.28-1.88,1.08-3.70,2.29-5.18l-2.31-5.41c-2.31-.39-4.17-1.19-5.66-2.46-3.78,1.26-7.78,1.24-11.67,1.24-2.90,0-5.90-.02-8.71.52-.74.14-2.00.47-2.41.67-.23,2.18-.99,4.16-2.20,5.77l2.00,4.47c.11.02.29.02.43.01.07,0,.15,0,.23,0ZM22.53,23.63h0Z"/>
  <path fill="#fff" d="M19.68,55.23l-9.47-21.14,3.44-3.79,7.84,17.25c.52-.32,1.04-.67,1.54-1.00.74-.49,1.50-1.00,2.30-1.45,6.13-3.41,10.38-3.45,16.26-3.52,1.23-.01,2.52-.03,3.91-.07,4.87-.16,9.11-1.15,12.58-2.92l.48-.24,1.71,4.05-.36.23c-2.02,1.28-4.59,2.28-7.23,2.82-3.16.65-6.42.67-9.57.69-3.60.02-7.33.04-10.88,1.01-4.07,1.11-7.78,3.46-12.04,7.60l-.51.50ZM11.40,34.28l8.62,19.24c4.17-3.96,7.89-6.24,11.96-7.35,3.67-1.00,7.47-1.03,11.13-1.05,3.10-.02,6.31-.04,9.38-.67,2.38-.49,4.68-1.36,6.54-2.46l-.96-2.28c-3.51,1.69-7.72,2.63-12.52,2.79-1.40.05-2.70.06-3.94.07-5.73.06-9.87.11-15.78,3.39-.76.42-1.51.92-2.23,1.40-.67.45-1.36.91-2.07,1.32l-.48.27-7.67-16.87-1.98,2.18Z"/>
  <path fill="#fff" d="M35.47,22.98c3.53-.08,7.68,3.01,7.64,6.72-.06,6.56-10.52,5.09-12.10-.92-.85-3.21,1.20-5.72,4.46-5.80ZM37.88,25.68l-1.55-.09-.37-.64-.90.14c.35,1.13-.21.74-.64,1.42-.57.91.08,1.91.93,2.33s1.83.30,2.69.66c-.06,1.21-1.65.51-2.42.64l.16,1.19c.50.26,1.31.04,1.74.18.34.11.50,1.17,1.51.33l-.28-.64c1.87-.55,1.23-2.44-.25-3.09-.42-.19-2.40-.48-2.46-.69l.10-.49c.65-.18,1.25-.20,1.90,0l-.17-1.25Z"/>
</svg>