<?xml version="1.0" encoding="UTF-8"?>
<svg id="Layer_1" xmlns="http://www.w3.org/2000/svg" viewBox="0 0 70.47 70.47">
  <circle fill="#038187" cx="35.23" cy="35.23" r="35.23"/>
  <path fill="#fff" d="M18.75,24.62c-11.5,16.16,5.93,36.56,23.78,28.1,1.12-.54,3.53-2.77,3.53-.49v.19c-7.94,5.93-19.57,4.81-26.5-2.13-9.61-9.61-7.29-25.96,4.57-32.51,7.08-3.91,15.68-3.1,21.93,1.25v1.92c-8.07-6.46-20.88-5.35-27.31,3.67Z"/>
  <path fill="#fff" d="M42.74,43.27l-5.87-5.87c-.23-.47.34-.91.40-1.41.25-2.25-2.15-2.85-2.29-3.29v-8.40c0-.50-1.52-.50-1.52,0v8.52c0,.07-.82.19-1.28.63-1.27,1.18-1.35,3.01-.25,4.33,1.49,1.76,3.15.34,4.07.76,1.05.47,4.24,4.59,5.59,5.61,1.01.76,1.54.19,1.16-.89ZM34.09,37.16c-2.89,0-.82-4.40,1.09-2.49.77.77.38,2.49-1.09,2.49Z"/>
  <path fill="#fff" d="M33.66,48.91c-3.59.68-1.50,6.14,1.56,4.38,2.50-1.43.92-4.85-1.56-4.38ZM34.99,51.52c-.27,1-2.19.11-1.50-.86.38-.53,1.75-.05,1.50.86Z"/>
  <path fill="#fff" d="M18.40,33.38c-3.12.40-2.50,4.81.18,4.81,3.30-.01,2.98-5.21-.18-4.81ZM17.80,36.15c-.61-.99,1.12-1.45,1.39-1.00.66,1.12-.81,1.91-1.39,1.00Z"/>
  <path fill="#fff" d="M33.90,17.88c-3.01.30-2.61,4.80.19,4.79,3.37,0,2.88-5.09-.19-4.79ZM34.70,20.85c-1.13.66-1.91-.81-1.00-1.39.99-.61,1.45,1.12,1.00,1.39Z"/>
  <path fill="#fff" d="M18.44,43.39c.08-.74,1.40-1.00,1.97-1.36,2.68,1.04-2.21,3.49-1.97,1.36Z"/>
  <path fill="#fff" d="M26.49,22.79c-.64,2.37-3.05-1.31-2.14-1.87.33-.07.89-.15,1.18.02.09.05.95,1.62.96,1.84Z"/>
  <path fill="#fff" d="M42.64,23.56c-1.88.49-.30-3.59,1.21-2.65.69.42-.54,2.46-1.21,2.65Z"/>
  <path fill="#fff" d="M25.49,47.87l.73.21c.31,3.83-4.16,2.88-.73-.21Z"/>
  <path fill="#fff" d="M44.04,50.12c-.94,1.87-3.14-1.88-1.80-2.28.77-.23,2.05,1.79,1.80,2.28Z"/>
  <path fill="#fff" d="M21.25,29.02c-1.15.13-3.21-.63-2.52-2.02,1.32-.11,2.89.41,2.52,2.02Z"/>
  <rect fill="#fff" x="45.04" y="26.94" width="18.29" height="1.60"/>
  <rect fill="#fff" x="45.04" y="35.54" width="18.29" height="1.60"/>
  <rect fill="#fff" x="45.04" y="44.13" width="18.29" height="1.60"/>
  <rect fill="#fff" x="46.96" y="42.09" width="4.46" height="5.68"/>
  <rect fill="#fff" x="46.96" y="33.50" width="4.46" height="5.68"/>
  <rect fill="#fff" x="46.96" y="24.91" width="4.46" height="5.68"/>
</svg>