<?xml version="1.0" encoding="UTF-8"?>
<svg id="Layer_1" xmlns="http://www.w3.org/2000/svg" viewBox="0 0 70.47 70.47">
  <circle fill="#038187" cx="35.23" cy="35.23" r="35.23"/>
  <path fill="#fff" d="M36.44,38.35c-4.88,0-9.77-1.10-13.35-3.30-2.97-1.83-4.63-4.23-4.66-6.76-.04-2.46,1.49-4.82,4.29-6.66,3.08-2.02,7.62-3.28,12.47-3.46h0c4.66-.17,11.19.78,15.49,3.98,2.46,1.83,3.71,4.02,3.62,6.32-.09,2.44-1.71,4.77-4.54,6.55-3.53,2.22-8.42,3.33-13.32,3.33ZM35.23,19.16c-4.66.18-9.02,1.38-11.96,3.30-2.50,1.64-3.87,3.70-3.84,5.81.03,2.18,1.52,4.28,4.18,5.93,6.77,4.17,18.98,4.15,25.61-.03,2.54-1.60,3.99-3.64,4.07-5.74.08-1.96-1.04-3.85-3.22-5.48-4.10-3.05-10.56-3.96-14.86-3.79h0ZM41.63,35.05l-1.49-1.27c-1.24.36-5.74,1.47-8.01-.62-.12-.10-.41-.33-.33-.74l.05-.30,3.18-.99.21.15c.79.60,1.78.51,2.56.29l-2.24-2.08-2.96.30c-1.71,0-4.02.02-5.46-1.28-.72-.65-1.01-1.33-.86-2.05.26-1.28,1.93-2.18,3.12-2.67l-1.66-1.65h1.20c.12-.01.55-.17.83-.28.81-.30,1.25-.45,1.59-.29l.12.08,1.16,1.03c.22-.04.45-.08.67-.13.37-.08.75-.15,1.13-.19,1.29-.14,3.68-.23,5.21.75.07.05.74.48.80.85l.04.22-.23.31-3.01.96-.17-.07c-.21-.08-.36-.20-.50-.30-.11-.08-.20-.15-.30-.19-.40-.16-.87-.13-1.31-.02l1.91,1.74,3.13-.26c1.62-.05,3.81.12,5.18,1.23,1.02.82,1.10,1.66,1.00,2.22-.24,1.27-1.63,2.28-2.83,2.82l1.38,1.34-3.10,1.08ZM40.38,32.67l1.47,1.25,1.03-.36-1.38-1.34.80-.25c1.26-.40,2.73-1.44,2.90-2.35.03-.16.12-.64-.64-1.25-1.13-.91-3.07-1.06-4.50-1.01l-3.54.29-3.43-3.12.71-.31c1.11-.48,2.06-.56,2.84-.24.21.09.37.20.51.31.05.04.10.07.14.10l1.63-.52c-1.33-.74-3.50-.60-4.40-.50-.35.04-.69.11-1.04.18-.32.06-.64.13-.96.17l-.23.03-1.36-1.21c-.20.04-.59.19-.84.28-.08.03-.15.06-.22.08l1.33,1.32-.76.26c-1.47.50-3.03,1.37-3.20,2.20-.03.13-.11.51.55,1.10,1.16,1.04,3.23,1.04,4.74,1.02l3.36-.34,3.72,3.46-.69.31c-.92.41-2.64.94-4.08.02l-1.62.51c1.62.99,4.61.73,6.88,0l.27-.08Z"/>
  <path fill="#fff" d="M36.43,52.33c-3.45,0-6.90-.56-9.93-1.67-2.85-1.05-7.68-3.50-8.09-8.19v-.06s.53-3.82.53-3.82l.66,2.15c1.09,3.53,5.09,5.44,7.38,6.26,5.85,2.10,13.34,2.07,19.09-.09,2.22-.83,6.09-2.74,7.04-6.16l.57-2.02.61,3.11c.13,5.16-5.36,7.82-7.72,8.73-3.06,1.18-6.60,1.77-10.15,1.77ZM19.46,42.80c.61,3.86,4.85,5.98,7.39,6.91,5.94,2.19,13.55,2.15,19.37-.09,2.01-.77,6.47-2.90,7.03-6.73-1.67,2.67-4.85,4.21-6.82,4.95-5.96,2.24-13.72,2.27-19.78.09-2.07-.74-5.44-2.32-7.19-5.14Z"/>
  <path fill="#fff" d="M36.44,47.67c-3.35,0-6.71-.53-9.71-1.59-2.35-.83-7.87-3.31-8.31-8.26v-.06s.55-3.94.55-3.94l.65,2.27c.59,2.06,2.33,3.55,3.69,4.44,6.74,4.41,19.11,4.49,25.96.17,1.46-.92,3.31-2.46,3.87-4.60l.15-.56.54.23c.35.15.39.54.42.80.79,5.37-5.22,8.31-7.08,9.09-3.19,1.33-6.94,2.00-10.71,2.00ZM19.47,38.18c.68,4.07,5.49,6.21,7.59,6.95,6.06,2.15,13.98,2.00,19.70-.39,1.50-.63,5.98-2.79,6.50-6.49-.92,1.46-2.31,2.56-3.47,3.29-7.13,4.50-20.02,4.42-27.04-.18-1.08-.71-2.39-1.77-3.29-3.19Z"/>
  <path fill="#fff" d="M36.4,42.99c-3.12,0-6.26-.45-9.07-1.36-4.74-1.54-9.54-4.90-8.83-9.71.03-.32.08-.71.43-.86l.54-.24.14.58c.46,1.88,2.04,3.32,3.29,4.21,6.86,4.87,20.25,4.86,27.04-.03,1.18-.85,2.70-2.26,3.18-4.11l.57-2.19.63,3.40c0,4.58-4.52,7.14-6.46,8.04-3.28,1.51-7.36,2.28-11.46,2.28ZM19.5,33.57c.65,4.44,6.79,6.67,8.14,7.10,6.27,2.04,14.23,1.68,19.80-.88,1.64-.75,5.29-2.79,5.82-6.21-.77,1.21-1.83,2.14-2.73,2.79-7.08,5.09-21.05,5.11-28.21.03-.93-.66-2.04-1.62-2.83-2.84Z"/>
  <path fill="#fff" d="M40.78,31.63l-3.65-3.46h1.23c.32-.02.64-.05.96-.08.93-.09,1.98-.19,2.96.36.81.45.93.99.88,1.36-.11.91-1.33,1.54-2.12,1.75l-.27.07ZM39.54,29.07l1.51,1.43c.59-.22,1.10-.61,1.12-.83,0-.07-.10-.21-.38-.36-.67-.37-1.44-.32-2.26-.24Z"/>
  <path fill="#fff" d="M32.03,28.30l-.38-.05c-.60-.08-1.27-.16-1.81-.66-.48-.44-.49-.88-.42-1.16.24-.95,1.80-1.42,2.27-1.54l.27-.07,3.33,3.14-3.26.33ZM31.68,25.94c-.69.22-1.24.56-1.29.74,0,.01.02.08.13.18.30.28.76.34,1.25.40l.27.04.96-.10-1.33-1.26Z"/>
</svg>