<?xml version="1.0" encoding="UTF-8"?>
<svg id="Layer_1" xmlns="http://www.w3.org/2000/svg" viewBox="0 0 70.47 70.47">
  <circle fill="#038187" cx="35.23" cy="35.23" r="35.23"/>
  <path fill="#fff" d="M54.66,20.02c-.78-2.23-2.43-3.12-4.70-3.28-1.26-.09-2.83-.03-4.06.14.37-4.14-2.22-4.56-5.69-4.28-.20-.06-.49-.98-.67-1.26-.91-1.49-2.61-2.06-4.23-2.43h-2.07c-1.41.16-3.40,1.13-4.18,2.34-.19.29-.54,1.29-.72,1.35-2.07.14-4.68-.63-5.52,1.91-.28.85-.03,1.54-.30,2.31-3.23-.19-7.28-.58-8.49,3.20-.40,10.90-.08,21.88-.16,32.81.53,2.58,2.31,3.75,4.79,3.94h30.95c.54-.27,1.17-.09,1.79-.20,1.73-.31,3.15-2.05,3.42-3.74-.08-10.93.24-21.91-.16-32.81ZM24.99,15.16c.21-.24.45-.31.75-.34,1.15-.14,3.23.25,4.21-.06.89-.28.56-1.47.98-2.19,1.19-2.06,6.28-1.94,6.93.59.23.92-.10,1.55,1.22,1.67.80.07,3.89-.19,4.31.16.41.94.06,2.10.04,3.05,0,.32.42,2.14-.22,2.14h-18.01l-.21-.20v-4.82ZM52.63,52.02c-.13,1.33-.98,2.44-2.40,2.42h-31.92c-1.36-.04-2.21-1.27-2.26-2.55v-30.27c-.06-1,.94-2.54,2.00-2.54h4.60c-.18,1.74.89,3.29,2.68,3.45,5.68.51,12.12-.39,17.88-.01,1.77-.26,2.77-1.68,2.69-3.44,2.05.29,5.73-.95,6.56,1.63.41,10.39.06,20.88.17,31.31Z"/>
  <path fill="#fff" d="M27.19,29.47h-6.13v2.55h26.19v-2.55h-20.06ZM21.56,31.53v-1.55h12.63v1.55h-12.63Z"/>
  <path fill="#fff" d="M27.19,36.20h-6.13v2.55h26.19v-2.55h-20.06ZM21.56,38.25v-1.55h12.63v1.55h-12.63Z"/>
  <path fill="#fff" d="M27.19,44.05h-6.13v2.55h26.19v-2.55h-20.06ZM21.56,46.10v-1.55h12.63v1.55h-12.63Z"/>
</svg>