<?xml version="1.0" encoding="UTF-8"?>
<svg id="Layer_1" xmlns="http://www.w3.org/2000/svg" viewBox="0 0 70.47 70.47">
  <circle fill="#038187" cx="35.23" cy="35.23" r="35.23"/>
  <path fill="#fff" d="M49.33,19.84c.08-.7-.27-4.15.45-4.31,2.13-.17,4.68.09,5.21,2.55-.61,10.13.73,21.08.10,31.10-.12,1.94-1.04,2.75-2.92,2.93-11.11,1.08-23.95-.84-35.24,0-2.02-.20-2.83-1.09-2.93-3.10-.48-10.16.59-20.94.13-31.17.78-2.30,3.21-2.51,5.32-2.26l.31,4.26h29.57ZM18.41,16.61c-.82-.34-3.23.66-3.23,1.48v28.90c.99-.71,2.07-.55,3.23-.54v-29.84ZM50.67,16.61v29.84c1.16-.01,2.24-.17,3.23.54v-28.90c0-.82-2.41-1.82-3.23-1.48ZM49.33,20.91h-29.57v26.21c-1.05,1.01-3.38-.29-4.27,1.10-.82,1.28-.04,2.73,1.48,2.77,11.23-.54,23.26.80,34.40.04,1.62-.11,3.28-.63,2.34-2.64-.77-1.64-3.31-.25-4.37-1.27v-26.21Z"/>
  <path fill="#fff" d="M36.46,27.06l3.02,1.07c.64-.28,1.06-1.48,1.87-1.27.15.04,2.12,1.94,2.22,2.12.37.72-1.01,1.17-1.19,1.81-.10.35.93,3.17,1.07,3.26.42.27,1.77-.28,2.27.29.19.27.20,2.40.12,2.84-.20,1.09-1.25.53-2.02.67-.89.16-.99,2.05-1.47,2.83l1.32,1.84-2.40,2.47-1.97-1.46c-1.82,1.21-3.35.57-2.91,3.43-1.15.46-2.54.46-3.69,0,.46-2.83-1.21-2.35-3.11-3.45l-1.63,1.59-2.53-2.77c2.01-1.51,1.03-2.39.26-4.35l-2.31-.37c-.12-.72-.44-3.23.32-3.47l1.94-.07c.06-.91,1.20-2.27,1.12-3.05s-1.22-1.07-1.33-1.86c.03-.15,1.97-2.12,2.14-2.20,1.10-.50,1.47,1.25,2.23,1.17l2.84-1.07.29-2.27h3.26l.29,2.27ZM35.35,25.75h-1.62l-.12,2.17c-2.40.31-3.89,2.96-5.66.26-2.17,1.35.54,1.87.28,2.97l-1.62,3.74-2.29.26.25,1.50,2.16.13c.03,1.46.78,2.77,1.59,3.94.10.60-2.76,2.12-.23,2.64l1.47-1.22,4.14,1.64.03,2.13h1.62l.03-2.13c.82-.14,1.61-.40,2.39-.70,1.62-.63,1.67-1.73,3.22.28.66.11,1.04-.43,1.03-1.04l-1.26-1.60c.81-1.16,1.56-2.48,1.59-3.94l1.97-.05c.62-.20.43-1.07.44-1.58l-2.29-.26-1.62-3.74c-.20-.89,1.49-1.44,1.11-2.17l-.82-.80c-1.72,2.12-1.80,1.18-3.63.40s-2.46.03-2.15-2.83Z"/>
  <path fill="#fff" d="M33.67,29.59c8.35-1.12,9.82,11.47,2.06,12.54-9.03,1.25-10.09-11.47-2.06-12.54ZM38.21,39.64c4.92-4.92-2.73-12.40-7.44-7.31-4.66,5.03,2.79,11.96,7.44,7.31Z"/>
  <path fill="#fff" d="M33.66,33.07c4.29-.99,5.26,5.07,1.49,5.80s-4.88-5.02-1.49-5.80ZM33.93,34.14c-1.37.41-1.73,2.95-.27,3.39,3.82,1.16,3.27-4.29.27-3.39Z"/>
</svg>