<?xml version="1.0" encoding="UTF-8"?>
<svg id="Layer_1" xmlns="http://www.w3.org/2000/svg" viewBox="0 0 70.47 70.47">
  <circle style="fill:#038187;" cx="35.23" cy="35.23" r="35.23"/>
  <path style="fill:#ffffff;" d="M56.53,30.18v-2.4c-.3-.16-.63-.2-.97-.22-3.35-.24-9.66-.32-12.94,0-.37.03-.69,0-.91.38l-.07,2.26,1.05.59c-.62,4.07,2.77,6.19,5.09,8.89-1.45,2.19-4.72,4.19-5.04,6.94-.05.42.05,2.17-.03,2.25-.1.11-.91-.2-1.08.65-.07.37-.08,2.02.17,2.2l14.68-.09.05-2.45c-.08-.43-.8-.23-.88-.31-.09-.09-.09-2.15-.24-2.76-.64-2.62-3.45-4.25-4.86-6.43,1.8-2.44,4.61-4.04,5.05-7.33.05-.4-.02-1.8.05-1.86.09-.08.8.12.88-.31ZM55.46,49.96v.73h-12.75v-.73h12.75ZM54.36,46.22v2.64h-10.56c-.03-1.31-.09-2.39.51-3.58.3-.59,4.13-4.82,4.54-4.94.04-.02.09-.03.14-.03.03,0,.06,0,.09,0,.02,0,.04,0,.06,0,.08,0,.15,0,.23.02.06,0,.11.03.16.05.03,0,.05.02.09.03.05.03.09.07.15.1.03.03.04.05.07.07.7,1.23,4.53,4.42,4.53,5.66ZM54.36,33.12c0,1.21-3.78,4.5-4.54,5.65l-1.16.24c-2.09-2.67-5.6-4.6-4.86-8.53h10.56v2.64ZM55.46,29.38h-12.75c-.07-.21.09-.73.27-.73h12.47v.73Z"/>
  <path style="fill:#ffffff;" d="M53.51,31.33v1.76c-.09.56-1.77,2.31-2.67,3.25-.62.64-1.16,1.21-1.51,1.66l-.33.07c-.48-.56-1-1.09-1.51-1.61-1.6-1.62-3.01-3.04-2.92-5.13h8.94Z"/>
  <path style="fill:#ffffff;" d="M53.15,19.95v5.17h-1.21c0-1.38,0-2.75-.06-4.11-.03-.4-.03-1.65-.6-1.65h-4.43v1.66c0,.62-1.28.51-1.28.1v-1.6l-.37-.17-6.61.03-.16.15c-.08.59.27,2.03-.7,1.97-.15-.02-.59-.27-.59-.38v-1.6l-.37-.17-6.61.03-.16.15c-.08.59.27,2.03-.7,1.97-.15-.02-.6-.27-.6-.38v-1.6l-.16-.16h-6.99v1.66c0,.56-1.28.54-1.28.1v-1.6c-.09-.15-.21-.15-.37-.17-.78-.09-3.08-.09-3.84.02-.35.05-.81.3-.81.68v3.69h31.12c.38,0,.66.83.34,1.15-.02.02-.43.24-.45.24H15.25v24.19s.2.44.26.49l23.07.09c1.05,0,1.15,1.29.11,1.39h-22.54c-.93,0-1.69-.49-2.08-1.33-.19-10.12-.14-20.33-.03-30.46.04-.45,1.12-1.41,1.48-1.41h4.75c.06-.5-.09-1.17,0-1.65.1-.62,1.28-.49,1.28,0v1.65h7.15v-1.65c0-.21.49-.48.68-.46.15,0,.61.39.61.46v1.65h7.16v-1.65c0-.56,1.28-.41,1.28,0v1.65h7.15v-1.65c0-.65,1.28-.4,1.28,0v1.65h4.64s.62.23.69.27c.49.3.9,1.03.97,1.6Z"/>
  <path style="fill:#ffffff;" d="M27.21,39.7c-.05-.44-.23-.67-.7-.7l-5.85.03-.4.56c.19,1.8-.23,4.03,0,5.77.06.45.29.56.69.59,1.33.13,4.12.12,5.45,0,.62-.06.74-.2.8-.8.11-1.27.14-4.21,0-5.45ZM25.93,44.29c-.02.16,0,.28-.16.38h-4.06l-.16-.16v-4.22h4.22l.15.16c-.16.37,0,.68.02,1.06.03.78.09,2.04,0,2.78Z"/>
  <path style="fill:#ffffff;" d="M27.21,29.87c-.02-.21-.08-.51-.25-.65h-6.57c-.12.15-.12.35-.14.55-.15,1.82.13,3.83,0,5.67,0,.32.27.58.59.59,1.79-.14,3.8.16,5.56,0,.52-.05.74-.15.8-.7.14-1.21.12-4.22,0-5.45ZM25.89,34.56c-.03.08-.06.13-.13.17h-4.06l-.16-.16v-4.22h4.22l.14.17c-.08.29.02.56.03.84.02.55.09,2.85-.03,3.2Z"/>
  <path style="fill:#ffffff;" d="M37.46,29.87c-.06-.6-.19-.74-.8-.8-1.39-.13-4.06-.12-5.45,0-.2.02-.39.02-.56.14-.12.16-.12.36-.14.56-.12,1.39-.13,4.07,0,5.45.03.39.12.78.59.8,1.79-.14,3.8.16,5.56,0,.51-.05.74-.15.8-.7.15-1.23.12-4.19,0-5.45ZM36.17,34.25c0,.15-.02.39-.15.48h-4.06l-.16-.16v-4.22h4.22l.15.16v3.74Z"/>
</svg>
