<?xml version="1.0" encoding="UTF-8"?>
<svg id="Layer_1" xmlns="http://www.w3.org/2000/svg" viewBox="0 0 70.47 70.47">
  <circle style="fill:#038187;" cx="35.23" cy="35.23" r="35.23"/>
  <path style="fill:#ffffff;" d="M43.93,25.83c1.44-.33,1.51,2,.08,1.78-.94-.14-1-1.57-.08-1.78Z"/>
  <path style="fill:#ffffff;" d="M38.81,12.09c2,.72,1.2,2.88,1.36,4.51,1.73.28,3.26,1.17,4.83,1.9,1.45-1.02,2.47-3.47,4.51-1.81,1.05.86,3.5,3.29,4.33,4.34,1.59,2-.87,3.06-1.85,4.47.73,1.57,1.6,3.1,1.9,4.83,1.63.16,3.79-.64,4.51,1.36v7.04c-.72,2-2.88,1.2-4.51,1.36-.36,1.71-1.1,3.32-1.97,4.83,1.08,1.34,3.49,2.5,1.92,4.47-.83,1.05-3.28,3.48-4.33,4.34-2.01,1.64-3.13-.75-4.52-1.87-1.51.86-3.12,1.57-4.82,1.97-.18,1.57.65,3.84-1.36,4.47-2.16-.07-4.61.23-6.74.04-2.3-.21-1.54-2.95-1.68-4.51-1.69-.41-3.31-1.12-4.82-1.97-1.34,1.08-2.5,3.49-4.47,1.92-1.05-.83-3.48-3.28-4.34-4.33-1.64-2.01.75-3.13,1.87-4.52-.85-1.52-1.57-3.12-1.97-4.82-1.56-.14-4.3.63-4.51-1.68-.14-1.61-.14-4.81,0-6.42.21-2.3,2.95-1.54,4.51-1.68.39-1.7,1.1-3.32,1.97-4.82-1.08-1.34-3.49-2.5-1.92-4.47.83-1.05,3.28-3.48,4.33-4.34,2.01-1.64,3.13.75,4.52,1.88,1.5-.87,3.12-1.61,4.83-1.97.16-1.63-.64-3.79,1.36-4.51h7.04ZM38.36,13.89h-6.14v3.66c0,.17-.43.5-.6.58-.8.37-2.08.58-3.01.96-1.09.45-2.06,1.07-3.12,1.57-.78.05-2.37-2.07-3.02-2.58l-.23.05-4.1,4.13c-.05.31,2.75,2.39,2.61,3.14-.47,1.07-1.13,2.03-1.57,3.12-.19.48-.36.98-.52,1.46-.15.45-.41,2.15-1.01,2.15h-3.66v6.14h3.66c.64,0,.94,1.92,1.1,2.42.16.46.33.93.52,1.37.26.6,1.49,2.63,1.49,3.03,0,.7-2.1,2.31-2.58,2.93l.05.23,4.13,4.1c.74-.39,2.29-2.61,3.06-2.62.4,0,2.43,1.23,3.03,1.49.49.21,1.01.39,1.51.56s2.28.44,2.28,1.06v3.66h6.14v-3.66c0-.61,1.7-.86,2.15-1.01.49-.17.99-.33,1.46-.52,1.09-.44,2.05-1.1,3.12-1.57.75-.14,2.83,2.66,3.14,2.61l4.13-4.1.05-.23c-.5-.65-2.63-2.24-2.58-3.02.9-1.6,1.62-3.11,2.19-4.86.13-.41.33-1.87.92-1.87h3.66v-6.14h-3.66c-.12,0-.44-.34-.51-.48-.34-.64-.6-2.12-.93-2.95-.26-.65-.58-1.28-.9-1.9-.2-.39-.76-1.07-.76-1.49,0-.79,2.65-2.75,2.6-3.06l-4.1-4.13-.23-.05c-.68.52-2.18,2.6-3.01,2.55-.35-.02-2.29-1.21-2.86-1.46-.54-.23-1.09-.43-1.64-.61-.45-.15-2.24-.43-2.24-1.01v-3.66Z"/>
  <path style="fill:#ffffff;" d="M41.94,25.15c-.66.65-2.08-.41-2.83-.67-10.89-3.8-19.91,9.22-12.57,17.99,8.05,9.62,23.58.96,19.5-11.02-.23-.69-1.08-1.83-.36-2.43,1.37-1.13,2.19,2.04,2.41,2.91,3.13,12.65-11.93,21.73-21.6,13.11-10.55-9.39-.69-26.85,13.05-22.35.8.26,3.65,1.21,2.41,2.45Z"/>
  <path style="fill:#ffffff;" d="M38.88,28.54c.32-.06.54.08.79.25.51.37,2.86,2.73,3.25,3.25.25.34.3.58.18,1l-8.53,8.62c-.53.43-.96.13-1.41-.23-1.87-1.52-3.55-3.83-5.42-5.42-.51-.57-.41-1.03.04-1.58.55-.66,2.42-2.59,3.07-3.07,1.32-.97,2.19,1.23,3.2,1.76l4.3-4.28c.14-.11.35-.26.52-.3ZM39.04,30.78l-4.29,4.29c-1.26,1.06-2.29-1.12-3.21-1.76l-1.94,1.94,4.46,4.37,6.92-6.9-1.94-1.94Z"/>
</svg>
